<svg width="258" height="100" viewBox="0 0 258 100" fill="none" xmlns="http://www.w3.org/2000/svg">
<path d="M108 0H150C182 0 191.501 24.1398 201.732 48.6985C212.325 74.1247 223 100 258 100H0C35 100 45.6753 74.1247 56.2677 48.6985C66.4988 24.1398 76 0 108 0Z" fill="url(#paint0_linear_7955_25182)"/>
<path d="M108 0.25H150C165.923 0.25 176.229 6.24992 183.838 15.3008C191.462 24.37 196.382 36.5041 201.502 48.7949C206.794 61.4986 212.125 74.3646 220.524 84.0479C227.574 92.1753 236.781 98.0562 249.919 99.75H8.08105C21.2186 98.0562 30.4259 92.1753 37.4756 84.0479C45.8748 74.3646 51.2058 61.4986 56.498 48.7949C61.6183 36.5041 66.5378 24.37 74.1621 15.3008C81.771 6.24992 92.0771 0.25 108 0.25Z" stroke="#7582F4" stroke-opacity="0.5" stroke-width="0.5"/>
<defs>
<linearGradient id="paint0_linear_7955_25182" x1="179.615" y1="100" x2="179.615" y2="0" gradientUnits="userSpaceOnUse">
<stop stop-color="#262C51"/>
<stop offset="1" stop-color="#3E3F74"/>
</linearGradient>
</defs>
</svg>
