<svg width="250" height="88" viewBox="0 0 250 88" fill="none" xmlns="http://www.w3.org/2000/svg">
  <g>
    <circle cx="20" cy="30" r="5" fill="#E93A56"/>
    <circle cx="20" cy="18" r="5" fill="#FF6B6B"/>
    <circle cx="20" cy="42" r="5" fill="#FF6B6B"/>
    <circle cx="32" cy="24" r="5" fill="#FF4D6D"/>
    <circle cx="32" cy="36" r="5" fill="#FF4D6D"/>

    <circle cx="44" cy="30" r="5" fill="#F39C12"/>
    <circle cx="44" cy="18" r="5" fill="#F5B041"/>
    <circle cx="44" cy="42" r="5" fill="#F5B041"/>
    <circle cx="56" cy="24" r="5" fill="#F4D03F"/>
    <circle cx="56" cy="36" r="5" fill="#F4D03F"/>
    <circle cx="68" cy="30" r="5" fill="#D4AC0D"/>

    <circle cx="20" cy="54" r="5" fill="#35B7EA"/>
    <circle cx="32" cy="48" r="5" fill="#2EA8DF"/>
    <circle cx="44" cy="54" r="5" fill="#2EA8DF"/>
    <circle cx="32" cy="60" r="5" fill="#1F9FD6"/>
    <circle cx="44" cy="66" r="5" fill="#1594CC"/>
    <circle cx="44" cy="78" r="5" fill="#0F89C1"/>
    <circle cx="56" cy="54" r="5" fill="#4BC27D"/>
    <circle cx="68" cy="54" r="5" fill="#75D484"/>
  </g>
  <text x="88" y="36" fill="#1B2230" font-family="Noto Sans, Arial, sans-serif" font-size="48" font-weight="800">PLANET</text>
  <text x="88" y="70" fill="#4A525E" font-family="Noto Sans, Arial, sans-serif" font-size="30" font-weight="700">smart city</text>
</svg>
